<?xml version="1.0" encoding="utf-8"?>
<!-- Generator: Adobe Illustrator 21.0.2, SVG Export Plug-In . SVG Version: 6.00 Build 0)  -->
<svg version="1.1" id="Ebene_1" xmlns="http://www.w3.org/2000/svg" xmlns:xlink="http://www.w3.org/1999/xlink" x="0px" y="0px"
	 viewBox="0 0 1920 1080" style="enable-background:new 0 0 1920 1080;" xml:space="preserve">
<style type="text/css">
	.st0{fill:#FFFFFF;}
	.st1{font-family:'AmericanTypewriter-Bold';}
	.st2{font-size:221.6114px;}
	.st3{letter-spacing:-2.9;}
	.st4{font-family:'SignPainter-HouseScriptSemibold';}
	.st5{font-size:246.7215px;}
	.st6{stroke:#000000;stroke-width:8;stroke-miterlimit:10;}
</style>
<g>
	<path d="M486.4,848.4c-13.2,0-25.6-4.3-36-12.6L419.2,811l56.2-70.9L443.6,715l-56,71l-68.2-54c-20.6-16.3-24.1-46.4-7.8-67
		l133.7-168.7l-55.6-44.1c-8.8-7-12.8-18.1-10.4-29.1c2.3-11,10.6-19.5,21.4-22.2l325.1-82.3c2.7-0.7,5.5-1,8.3-1
		c8.9,0,17.7,3.7,24,10.2c6.3,6.5,9.7,15.1,9.5,24.2l-4.1,174.4L761.6,686c-0.2,18.3-15.3,29.3-29.7,29.3c0,0,0,0,0,0
		c-6.6,0-12.9-2.2-18.2-6.5l-54.4-43.1L532,826.4C520.9,840.3,504.3,848.4,486.4,848.4z M418.4,614.8l38.9,30.8l30.8-38.9
		l-38.9-30.8L418.4,614.8z"/>
	<path class="st0" d="M734,318.5c8.7,0,17.1,3.6,23.3,9.9c6.2,6.3,9.4,14.6,9.2,23.5l-4.1,174.4L760.6,686
		c-0.1,7.9-3.3,15.2-8.9,20.5c-5.3,5-12.6,7.9-19.8,7.9c-6.4,0-12.5-2.2-17.6-6.2l-53.6-42.5l-1.6-1.2l-1.2,1.6L531.2,825.7
		c-10.9,13.7-27.2,21.6-44.8,21.6c-13,0-25.2-4.3-35.4-12.3l-30.5-24.2l55-69.4l1.2-1.6l-1.6-1.2L445,714.8l-1.6-1.2l-1.2,1.6
		l-54.8,69.5L320,731.2c-9.8-7.7-15.9-18.8-17.4-31.2c-1.4-12.4,2-24.6,9.8-34.4l133.1-167.9l1.2-1.6l-1.6-1.2l-54.9-43.5
		c-8.6-6.8-12.4-17.3-10.1-28.1c2.3-10.7,10-18.8,20.7-21.5l154.9-39.2l170.1-43.1C728.6,318.8,731.3,318.5,734,318.5 M457.4,647.1
		l1.2-1.6l29.6-37.3l1.2-1.6l-1.6-1.2l-37.3-29.6l-1.6-1.2l-1.2,1.6l-29.6,37.3L417,615l1.6,1.2l37.3,29.6L457.4,647.1 M734,316.5
		c-2.8,0-5.7,0.3-8.6,1.1l-170.1,43.1l-154.9,39.2c-24.3,6.2-31,37.5-11.4,53l54.9,43.5L310.8,664.3c-16.7,21.1-13.2,51.7,7.9,68.4
		l69,54.7l56-71l30.2,23.9l-56.2,70.9l32,25.4c10.9,8.6,23.8,12.8,36.6,12.8c17.4,0,34.7-7.7,46.3-22.4l126.6-159.8l53.6,42.5
		c5.8,4.6,12.4,6.7,18.9,6.7c15.7,0,30.5-12.3,30.7-30.3l1.8-159.7l4.1-174.4C769,332,752.8,316.5,734,316.5L734,316.5z
		 M457.1,644.2l-37.3-29.6l29.6-37.3l37.3,29.6L457.1,644.2L457.1,644.2z"/>
</g>
<text transform="matrix(1.05 0 0 1 790.4043 481.1392)" class="st1 st2 st3">HOME</text>
<text transform="matrix(1.05 0 0 1 820.5684 669.9336)" class="st4 st5 st3">page</text>
<line class="st6" x1="790.4" y1="529.6" x2="1556.3" y2="529.6"/>
</svg>
